<?xml version="1.0" encoding="UTF-8"?>
<svg enable-background="new 0 0 283.46 68" version="1.1" viewBox="0 0 283.46 68" xml:space="preserve" xmlns="http://www.w3.org/2000/svg">
<style type="text/css">
	.st0{fill:#147899;}
	.st1{fill:#02385C;}
	.st2{fill:#001A37;}
</style>
	<path class="st0" d="m227.63 41.56v0.68-0.35-0.33m-15.62-15.3c-6.32 0-12.02 3.81-14.44 9.65s-1.08 12.56 3.39 17.03c2.99 2.99 6.98 4.58 11.05 4.58 2.01 0 4.04-0.39 5.98-1.19 0.26-0.11 0.52-0.22 0.77-0.34v-12.1c-0.86 2.91-3.56 5.03-6.75 5.03-2.85 0-5.41-1.71-6.5-4.34s-0.49-5.66 1.53-7.67c1.35-1.35 3.15-2.06 4.98-2.06 0.91 0 1.82 0.18 2.69 0.54 1.99 0.83 3.46 2.5 4.05 4.5v-12.09c-2.05-0.98-4.33-1.53-6.75-1.54"/>
	<path class="st0" d="m67.32 26.18c-4 0-8 1.53-11.05 4.58-6.1 6.1-6.1 16 0 22.1 3.05 3.05 7.05 4.58 11.05 4.58s8-1.53 11.05-4.58l-6.07-6.07c-1.31 1.32-3.1 2.06-4.96 2.06h-0.02c-3.19 0-5.97-2.14-6.8-5.22-0.82-3.08 0.52-6.32 3.28-7.92 1.1-0.63 2.31-0.94 3.52-0.94 1.82 0 3.62 0.71 4.98 2.06l6.07-6.07c-3.05-3.05-7.05-4.58-11.05-4.58"/>
	<path class="st0" d="m137.46 26.26h-12.18c-5.5 0-9.96 4.46-9.96 9.96s4.46 9.96 9.96 9.96h5.13c0.76 0 1.37 0.61 1.37 1.37s-0.61 1.37-1.37 1.37h-12.18v8.59h12.32c4-0.05 7.58-2.5 9.09-6.21s0.65-7.96-2.18-10.79c-1.86-1.87-4.38-2.92-7.01-2.92h-0.03-5.13c-0.76 0-1.37-0.62-1.37-1.38s0.62-1.37 1.37-1.37h12.18v-8.58"/>
	<path class="st0" d="m227.63 42.24c-0.13 5.9-3.58 11.21-8.88 13.74v1.49h8.88v-15.23m-8.87-2.36v4.01c0.19-0.64 0.29-1.31 0.29-2s-0.1-1.37-0.29-2.01m8.87-13.65h-8.88v1.57c5.15 2.48 8.74 7.69 8.88 13.76v-15.33"/>
	<path class="st1" d="m218.76 27.8v12.08c0.19 0.64 0.29 1.31 0.29 2 0 0.7-0.1 1.37-0.29 2v12.09c5.3-2.53 8.74-7.84 8.88-13.74v-0.68c-0.14-6.06-3.73-11.28-8.88-13.75"/>
	<path class="st0" d="m153.79 26.23h-8.52v31.24h8.52-8.52v-17.57-0.18c0.07-5.65 3.57-10.48 8.52-12.49v-1"/>
	<path class="st0" d="m177.75 26.23c-3.65 0-6.96 1.43-9.41 3.75 2.58 2.45 4.21 5.91 4.26 9.74v0.18c0-2.84 2.3-5.15 5.15-5.15 2.84 0 5.15 2.3 5.15 5.15v17.57h8.52v-17.57-0.18c-0.1-7.47-6.18-13.49-13.67-13.49"/>
	<path class="st0" d="m158.93 26.23c-1.82 0-3.56 0.36-5.15 1v30.24-17.57c0-2.84 2.3-5.15 5.15-5.15s5.15 2.3 5.15 5.15v-0.18c0.05-3.83 1.67-7.28 4.26-9.74-2.45-2.32-5.76-3.75-9.41-3.75"/>
	<path class="st1" d="m153.79 27.23c-4.94 2.01-8.45 6.84-8.52 12.49v0.18 17.57h8.52v-30.24"/>
	<path class="st1" d="m168.34 29.98c-2.58 2.45-4.21 5.91-4.26 9.74v0.18 17.57h8.52v-17.57-0.18c-0.05-3.83-1.68-7.28-4.26-9.74"/>
	<g id="cosma-roll">
		<path class="st0" d="m95.49 46.43-4.08 2.36v8.55h8.17v-8.55l-4.09-2.36m4.08-20.34h-8.17v8.55l4.09 2.36 4.08-2.36v-8.55"/>
		<path class="st0" d="m103.65 41.71-4.08 2.36v4.71l7.4 4.27 4.08-7.07-7.4-4.27m-19.65-11.34-4.08 7.07 7.4 4.27 4.08-2.36v-4.71l-7.4-4.27"/>
		<path class="st1" d="m99.57 44.07-4.08 2.36 4.08 2.36v-4.72m-8.17-9.43v4.71l4.09-2.35-4.09-2.36"/>
		<path class="st0" d="m87.32 41.71-7.4 4.27 4.08 7.08 7.4-4.27v-4.71l-4.08-2.37m19.65-11.34-7.4 4.27v4.71l4.08 2.36 7.4-4.27-4.08-7.07"/>
		<path class="st1" d="m91.4 44.07v4.71l4.08-2.36-4.08-2.35m8.17-9.43-4.08 2.36 4.08 2.36v-4.72"/>
		<path class="st1" d="m91.4 39.36-4.08 2.36 4.08 2.36v-4.72m8.17 0v4.71l4.08-2.36-4.08-2.35"/>
		<polyline class="st2" points="95.49 37 91.4 39.36 91.4 44.07 95.49 46.43 99.57 44.07 99.57 39.36 95.49 37"/>
	</g>
	<path class="st0" d="m50.43 16.17h-15c-0.69 0-1.25 0.56-1.25 1.25v48.56c0 0.69 0.56 1.25 1.25 1.25h15v-9.9h-5.09c-0.69 0-1.25-0.56-1.25-1.25v-28.74c0-0.69 0.56-1.25 1.25-1.25h5.09v-9.92"/>
	<path class="st0" d="m32.53 16.17h-15c-0.69 0-1.25 0.56-1.25 1.25v48.56c0 0.69 0.56 1.25 1.25 1.25h15v-9.9h-5.09c-0.69 0-1.25-0.56-1.25-1.25v-28.73c0-0.69 0.56-1.25 1.25-1.25h5.09v-9.93"/>
	<path class="st0" d="m247.89 16.17h-15v9.92h5.09c0.69 0 1.25 0.56 1.25 1.25v28.74c0 0.69-0.56 1.25-1.25 1.25h-5.09v9.9h15c0.69 0 1.25-0.56 1.25-1.25v-48.56c0.01-0.68-0.56-1.25-1.25-1.25"/>
	<path class="st0" d="m265.82 16.17h-15v9.92h5.09c0.69 0 1.25 0.56 1.25 1.25v28.74c0 0.69-0.56 1.25-1.25 1.25h-5.09v9.9h15c0.69 0 1.25-0.56 1.25-1.25v-48.55c0-0.69-0.56-1.26-1.25-1.26"/>
</svg>